<mxfile host="Electron" agent="Mozilla/5.0 (Windows NT 10.0; Win64; x64) AppleWebKit/537.36 (KHTML, like Gecko) draw.io/24.7.5 Chrome/126.0.6478.183 Electron/31.3.0 Safari/537.36" version="24.7.5">
  <diagram name="Page-1" id="isN-ykLhreiJsoZFf4d8">
    <mxGraphModel dx="1674" dy="836" grid="1" gridSize="10" guides="1" tooltips="1" connect="1" arrows="1" fold="1" page="1" pageScale="1" pageWidth="1169" pageHeight="827" math="0" shadow="0">
      <root>
        <mxCell id="0" />
        <mxCell id="1" parent="0" />
        <mxCell id="9LEtkBxhA0jwdza2t0rF-47" style="edgeStyle=orthogonalEdgeStyle;rounded=0;orthogonalLoop=1;jettySize=auto;html=1;" edge="1" parent="1" source="9LEtkBxhA0jwdza2t0rF-2" target="9LEtkBxhA0jwdza2t0rF-46">
          <mxGeometry relative="1" as="geometry" />
        </mxCell>
        <mxCell id="9LEtkBxhA0jwdza2t0rF-2" value="" style="sketch=0;outlineConnect=0;fontColor=#232F3E;gradientColor=none;fillColor=#E7157B;strokeColor=none;dashed=0;verticalLabelPosition=bottom;verticalAlign=top;align=center;html=1;fontSize=12;fontStyle=0;aspect=fixed;pointerEvents=1;shape=mxgraph.aws4.alarm;" vertex="1" parent="1">
          <mxGeometry x="966" y="320" width="78" height="78" as="geometry" />
        </mxCell>
        <mxCell id="9LEtkBxhA0jwdza2t0rF-3" value="" style="outlineConnect=0;dashed=0;verticalLabelPosition=bottom;verticalAlign=top;align=center;html=1;shape=mxgraph.aws3.bucket_with_objects;fillColor=#E05243;gradientColor=none;" vertex="1" parent="1">
          <mxGeometry x="80" y="238" width="60" height="61.5" as="geometry" />
        </mxCell>
        <mxCell id="9LEtkBxhA0jwdza2t0rF-23" style="edgeStyle=orthogonalEdgeStyle;rounded=0;orthogonalLoop=1;jettySize=auto;html=1;exitX=1;exitY=0.5;exitDx=0;exitDy=0;exitPerimeter=0;" edge="1" parent="1" source="9LEtkBxhA0jwdza2t0rF-4" target="9LEtkBxhA0jwdza2t0rF-10">
          <mxGeometry relative="1" as="geometry" />
        </mxCell>
        <mxCell id="9LEtkBxhA0jwdza2t0rF-4" value="" style="outlineConnect=0;dashed=0;verticalLabelPosition=bottom;verticalAlign=top;align=center;html=1;shape=mxgraph.aws3.config;fillColor=#759C3E;gradientColor=none;" vertex="1" parent="1">
          <mxGeometry x="280" y="222.25" width="76.5" height="93" as="geometry" />
        </mxCell>
        <mxCell id="9LEtkBxhA0jwdza2t0rF-7" value="Organization" style="text;html=1;align=center;verticalAlign=middle;resizable=0;points=[];autosize=1;strokeColor=none;fillColor=none;" vertex="1" parent="1">
          <mxGeometry x="794" y="114" width="90" height="30" as="geometry" />
        </mxCell>
        <mxCell id="9LEtkBxhA0jwdza2t0rF-8" value="AWS Config&lt;div&gt;Aggregations&lt;/div&gt;" style="text;html=1;align=center;verticalAlign=middle;resizable=0;points=[];autosize=1;strokeColor=none;fillColor=none;" vertex="1" parent="1">
          <mxGeometry x="520" y="9" width="90" height="40" as="geometry" />
        </mxCell>
        <mxCell id="9LEtkBxhA0jwdza2t0rF-9" value="AWS Config&amp;nbsp;" style="text;html=1;align=center;verticalAlign=middle;resizable=0;points=[];autosize=1;strokeColor=none;fillColor=none;" vertex="1" parent="1">
          <mxGeometry x="266.5" y="311" width="90" height="30" as="geometry" />
        </mxCell>
        <mxCell id="9LEtkBxhA0jwdza2t0rF-24" style="edgeStyle=orthogonalEdgeStyle;rounded=0;orthogonalLoop=1;jettySize=auto;html=1;entryX=0.5;entryY=1;entryDx=0;entryDy=0;" edge="1" parent="1" source="9LEtkBxhA0jwdza2t0rF-10" target="9LEtkBxhA0jwdza2t0rF-18">
          <mxGeometry relative="1" as="geometry" />
        </mxCell>
        <mxCell id="9LEtkBxhA0jwdza2t0rF-26" style="edgeStyle=orthogonalEdgeStyle;rounded=0;orthogonalLoop=1;jettySize=auto;html=1;" edge="1" parent="1" source="9LEtkBxhA0jwdza2t0rF-10" target="9LEtkBxhA0jwdza2t0rF-21">
          <mxGeometry relative="1" as="geometry" />
        </mxCell>
        <mxCell id="9LEtkBxhA0jwdza2t0rF-10" value="" style="sketch=0;outlineConnect=0;fontColor=#232F3E;gradientColor=none;fillColor=#E7157B;strokeColor=none;dashed=0;verticalLabelPosition=bottom;verticalAlign=top;align=center;html=1;fontSize=12;fontStyle=0;aspect=fixed;pointerEvents=1;shape=mxgraph.aws4.rule_3;rotation=-180;" vertex="1" parent="1">
          <mxGeometry x="528.5" y="234.75" width="78" height="68" as="geometry" />
        </mxCell>
        <mxCell id="9LEtkBxhA0jwdza2t0rF-13" value="" style="sketch=0;points=[[0,0,0],[0.25,0,0],[0.5,0,0],[0.75,0,0],[1,0,0],[0,1,0],[0.25,1,0],[0.5,1,0],[0.75,1,0],[1,1,0],[0,0.25,0],[0,0.5,0],[0,0.75,0],[1,0.25,0],[1,0.5,0],[1,0.75,0]];points=[[0,0,0],[0.25,0,0],[0.5,0,0],[0.75,0,0],[1,0,0],[0,1,0],[0.25,1,0],[0.5,1,0],[0.75,1,0],[1,1,0],[0,0.25,0],[0,0.5,0],[0,0.75,0],[1,0.25,0],[1,0.5,0],[1,0.75,0]];outlineConnect=0;fontColor=#232F3E;fillColor=#E7157B;strokeColor=#ffffff;dashed=0;verticalLabelPosition=bottom;verticalAlign=top;align=center;html=1;fontSize=12;fontStyle=0;aspect=fixed;shape=mxgraph.aws4.resourceIcon;resIcon=mxgraph.aws4.organizations;" vertex="1" parent="1">
          <mxGeometry x="800" y="40" width="78" height="78" as="geometry" />
        </mxCell>
        <mxCell id="9LEtkBxhA0jwdza2t0rF-37" style="edgeStyle=orthogonalEdgeStyle;rounded=0;orthogonalLoop=1;jettySize=auto;html=1;" edge="1" parent="1" source="9LEtkBxhA0jwdza2t0rF-14" target="9LEtkBxhA0jwdza2t0rF-36">
          <mxGeometry relative="1" as="geometry">
            <mxPoint x="280" y="479" as="targetPoint" />
          </mxGeometry>
        </mxCell>
        <mxCell id="9LEtkBxhA0jwdza2t0rF-14" value="" style="sketch=0;outlineConnect=0;fontColor=#232F3E;gradientColor=none;fillColor=#DD344C;strokeColor=none;dashed=0;verticalLabelPosition=bottom;verticalAlign=top;align=center;html=1;fontSize=12;fontStyle=0;aspect=fixed;pointerEvents=1;shape=mxgraph.aws4.identity_access_management_iam_roles_anywhere;" vertex="1" parent="1">
          <mxGeometry x="528.5" y="440" width="78" height="78" as="geometry" />
        </mxCell>
        <mxCell id="9LEtkBxhA0jwdza2t0rF-15" value="Non-Compliant&lt;div&gt;S3 Bucket&lt;/div&gt;" style="text;html=1;align=center;verticalAlign=middle;resizable=0;points=[];autosize=1;strokeColor=none;fillColor=none;" vertex="1" parent="1">
          <mxGeometry x="60" y="194.75" width="100" height="40" as="geometry" />
        </mxCell>
        <mxCell id="9LEtkBxhA0jwdza2t0rF-20" value="" style="group" vertex="1" connectable="0" parent="1">
          <mxGeometry x="525" y="49" width="85" height="60" as="geometry" />
        </mxCell>
        <mxCell id="9LEtkBxhA0jwdza2t0rF-18" value="" style="rounded=1;whiteSpace=wrap;html=1;strokeColor=#80B065;" vertex="1" parent="9LEtkBxhA0jwdza2t0rF-20">
          <mxGeometry width="85" height="60" as="geometry" />
        </mxCell>
        <mxCell id="9LEtkBxhA0jwdza2t0rF-16" value="" style="outlineConnect=0;dashed=0;verticalLabelPosition=bottom;verticalAlign=top;align=center;html=1;shape=mxgraph.aws3.config;fillColor=#759C3E;gradientColor=none;" vertex="1" parent="9LEtkBxhA0jwdza2t0rF-20">
          <mxGeometry x="4" y="2" width="36.5" height="40" as="geometry" />
        </mxCell>
        <mxCell id="9LEtkBxhA0jwdza2t0rF-19" value="" style="outlineConnect=0;dashed=0;verticalLabelPosition=bottom;verticalAlign=top;align=center;html=1;shape=mxgraph.aws3.config;fillColor=#759C3E;gradientColor=none;" vertex="1" parent="9LEtkBxhA0jwdza2t0rF-20">
          <mxGeometry x="43.5" y="18" width="36.5" height="40" as="geometry" />
        </mxCell>
        <mxCell id="9LEtkBxhA0jwdza2t0rF-28" style="edgeStyle=orthogonalEdgeStyle;rounded=0;orthogonalLoop=1;jettySize=auto;html=1;" edge="1" parent="1" source="9LEtkBxhA0jwdza2t0rF-21" target="9LEtkBxhA0jwdza2t0rF-14">
          <mxGeometry relative="1" as="geometry">
            <Array as="points">
              <mxPoint x="799" y="480" />
            </Array>
          </mxGeometry>
        </mxCell>
        <mxCell id="9LEtkBxhA0jwdza2t0rF-43" style="edgeStyle=orthogonalEdgeStyle;rounded=0;orthogonalLoop=1;jettySize=auto;html=1;" edge="1" parent="1" source="9LEtkBxhA0jwdza2t0rF-21" target="9LEtkBxhA0jwdza2t0rF-40">
          <mxGeometry relative="1" as="geometry">
            <Array as="points">
              <mxPoint x="799" y="180" />
            </Array>
          </mxGeometry>
        </mxCell>
        <mxCell id="9LEtkBxhA0jwdza2t0rF-21" value="" style="sketch=0;outlineConnect=0;fontColor=#232F3E;gradientColor=none;fillColor=#E7157B;strokeColor=none;dashed=0;verticalLabelPosition=bottom;verticalAlign=top;align=center;html=1;fontSize=12;fontStyle=0;aspect=fixed;pointerEvents=1;shape=mxgraph.aws4.automation;" vertex="1" parent="1">
          <mxGeometry x="760" y="229.75" width="78" height="78" as="geometry" />
        </mxCell>
        <mxCell id="9LEtkBxhA0jwdza2t0rF-22" style="edgeStyle=orthogonalEdgeStyle;rounded=0;orthogonalLoop=1;jettySize=auto;html=1;exitX=0.94;exitY=0.5;exitDx=0;exitDy=0;exitPerimeter=0;entryX=0;entryY=0.5;entryDx=0;entryDy=0;entryPerimeter=0;" edge="1" parent="1" source="9LEtkBxhA0jwdza2t0rF-3" target="9LEtkBxhA0jwdza2t0rF-4">
          <mxGeometry relative="1" as="geometry" />
        </mxCell>
        <mxCell id="9LEtkBxhA0jwdza2t0rF-25" style="edgeStyle=orthogonalEdgeStyle;rounded=0;orthogonalLoop=1;jettySize=auto;html=1;exitX=1;exitY=0.5;exitDx=0;exitDy=0;entryX=0;entryY=0.5;entryDx=0;entryDy=0;entryPerimeter=0;" edge="1" parent="1" source="9LEtkBxhA0jwdza2t0rF-18" target="9LEtkBxhA0jwdza2t0rF-13">
          <mxGeometry relative="1" as="geometry" />
        </mxCell>
        <mxCell id="9LEtkBxhA0jwdza2t0rF-31" value="Automation&lt;div&gt;(SSM)&lt;/div&gt;" style="text;html=1;align=center;verticalAlign=middle;resizable=0;points=[];autosize=1;strokeColor=none;fillColor=none;" vertex="1" parent="1">
          <mxGeometry x="720" y="297.75" width="80" height="40" as="geometry" />
        </mxCell>
        <mxCell id="9LEtkBxhA0jwdza2t0rF-32" value="IAM Role" style="text;html=1;align=center;verticalAlign=middle;resizable=0;points=[];autosize=1;strokeColor=none;fillColor=none;" vertex="1" parent="1">
          <mxGeometry x="528.5" y="518" width="70" height="30" as="geometry" />
        </mxCell>
        <mxCell id="9LEtkBxhA0jwdza2t0rF-33" value="CloudWatch&lt;div&gt;Alarm&lt;/div&gt;" style="text;html=1;align=center;verticalAlign=middle;resizable=0;points=[];autosize=1;strokeColor=none;fillColor=none;" vertex="1" parent="1">
          <mxGeometry x="920" y="394" width="90" height="40" as="geometry" />
        </mxCell>
        <mxCell id="9LEtkBxhA0jwdza2t0rF-34" value="Conditional Rule" style="text;html=1;align=center;verticalAlign=middle;resizable=0;points=[];autosize=1;strokeColor=none;fillColor=none;" vertex="1" parent="1">
          <mxGeometry x="510" y="299.5" width="110" height="30" as="geometry" />
        </mxCell>
        <mxCell id="9LEtkBxhA0jwdza2t0rF-35" value="Remediation&amp;nbsp;&lt;span style=&quot;background-color: initial;&quot;&gt;Action&lt;/span&gt;" style="text;html=1;align=center;verticalAlign=middle;resizable=0;points=[];autosize=1;strokeColor=none;fillColor=none;" vertex="1" parent="1">
          <mxGeometry x="630" y="452" width="130" height="30" as="geometry" />
        </mxCell>
        <mxCell id="9LEtkBxhA0jwdza2t0rF-36" value="" style="sketch=0;outlineConnect=0;fontColor=#232F3E;gradientColor=none;fillColor=#7AA116;strokeColor=none;dashed=0;verticalLabelPosition=bottom;verticalAlign=top;align=center;html=1;fontSize=12;fontStyle=0;aspect=fixed;pointerEvents=1;shape=mxgraph.aws4.bucket_with_objects;" vertex="1" parent="1">
          <mxGeometry x="191.5" y="440" width="75" height="78" as="geometry" />
        </mxCell>
        <mxCell id="9LEtkBxhA0jwdza2t0rF-38" value="Updated s3 Bucket&lt;div&gt;&lt;br&gt;&lt;/div&gt;" style="text;html=1;align=center;verticalAlign=middle;resizable=0;points=[];autosize=1;strokeColor=none;fillColor=none;" vertex="1" parent="1">
          <mxGeometry x="165" y="518" width="120" height="40" as="geometry" />
        </mxCell>
        <mxCell id="9LEtkBxhA0jwdza2t0rF-40" value="" style="sketch=0;outlineConnect=0;fontColor=#232F3E;gradientColor=none;fillColor=#E7157B;strokeColor=none;dashed=0;verticalLabelPosition=bottom;verticalAlign=top;align=center;html=1;fontSize=12;fontStyle=0;aspect=fixed;pointerEvents=1;shape=mxgraph.aws4.cloudwatch_logs;" vertex="1" parent="1">
          <mxGeometry x="972" y="144" width="78" height="58" as="geometry" />
        </mxCell>
        <mxCell id="9LEtkBxhA0jwdza2t0rF-44" style="edgeStyle=orthogonalEdgeStyle;rounded=0;orthogonalLoop=1;jettySize=auto;html=1;entryX=0.809;entryY=0.064;entryDx=0;entryDy=0;entryPerimeter=0;" edge="1" parent="1" source="9LEtkBxhA0jwdza2t0rF-21" target="9LEtkBxhA0jwdza2t0rF-2">
          <mxGeometry relative="1" as="geometry" />
        </mxCell>
        <mxCell id="9LEtkBxhA0jwdza2t0rF-45" value="CloudWatch&lt;div&gt;Logs&lt;/div&gt;" style="text;html=1;align=center;verticalAlign=middle;resizable=0;points=[];autosize=1;strokeColor=none;fillColor=none;" vertex="1" parent="1">
          <mxGeometry x="960" y="202" width="90" height="40" as="geometry" />
        </mxCell>
        <mxCell id="9LEtkBxhA0jwdza2t0rF-46" value="" style="sketch=0;points=[[0,0,0],[0.25,0,0],[0.5,0,0],[0.75,0,0],[1,0,0],[0,1,0],[0.25,1,0],[0.5,1,0],[0.75,1,0],[1,1,0],[0,0.25,0],[0,0.5,0],[0,0.75,0],[1,0.25,0],[1,0.5,0],[1,0.75,0]];outlineConnect=0;fontColor=#232F3E;fillColor=#E7157B;strokeColor=#ffffff;dashed=0;verticalLabelPosition=bottom;verticalAlign=top;align=center;html=1;fontSize=12;fontStyle=0;aspect=fixed;shape=mxgraph.aws4.resourceIcon;resIcon=mxgraph.aws4.sns;" vertex="1" parent="1">
          <mxGeometry x="966" y="558" width="78" height="78" as="geometry" />
        </mxCell>
      </root>
    </mxGraphModel>
  </diagram>
</mxfile>
